<svg xmlns="http://www.w3.org/2000/svg" viewBox="0 0 500 200" width="500" height="200" role="img" aria-label="most used languages">
  <defs>
    <clipPath id="r"><rect width="500" height="200" rx="18"/></clipPath>
    <filter id="b" x="-100%" y="-100%" width="300%" height="300%"><feGaussianBlur stdDeviation="32"/></filter>
  </defs>
  <g clip-path="url(#r)">
    <rect width="500" height="200" rx="18" fill="#1d1430"/>
    <circle cx="475" cy="5" r="75" fill="#ff8fab" opacity="0.28" filter="url(#b)"/>
    <circle cx="20" cy="205" r="65" fill="#b197fc" opacity="0.20" filter="url(#b)"/>
    <text x="28" y="40" font-family="'Segoe UI', 'Helvetica Neue', Helvetica, Arial, sans-serif" font-size="19" font-weight="700" fill="#ff8fab">most used languages</text>
    <rect x="28.0" y="62" width="376.1" height="11" rx="5.5" fill="#ff8fab"/>
    <rect x="407.1" y="62" width="58.4" height="11" rx="5.5" fill="#b197fc"/>
    <rect x="468.5" y="62" width="3.5" height="11" rx="5.5" fill="#7dd3fc"/>
    <rect x="475.0" y="62" width="-3.0" height="11" rx="5.5" fill="#f7b9d4"/>
    <rect x="475.0" y="62" width="-3.0" height="11" rx="5.5" fill="#ffc09f"/>
    <rect x="475.0" y="62" width="-3.0" height="11" rx="5.5" fill="#f07a9b"/>
    <circle cx="33" cy="100" r="5" fill="#ff8fab"/>
    <text x="46" y="105" font-family="'Segoe UI', 'Helvetica Neue', Helvetica, Arial, sans-serif" font-size="13.5"><tspan fill="#cfc4e6">Jupyter Notebook</tspan><tspan fill="#ffffff" font-weight="700"> 84.7%</tspan></text>
    <circle cx="33" cy="130" r="5" fill="#b197fc"/>
    <text x="46" y="135" font-family="'Segoe UI', 'Helvetica Neue', Helvetica, Arial, sans-serif" font-size="13.5"><tspan fill="#cfc4e6">HTML</tspan><tspan fill="#ffffff" font-weight="700"> 13.2%</tspan></text>
    <circle cx="33" cy="160" r="5" fill="#7dd3fc"/>
    <text x="46" y="165" font-family="'Segoe UI', 'Helvetica Neue', Helvetica, Arial, sans-serif" font-size="13.5"><tspan fill="#cfc4e6">TypeScript</tspan><tspan fill="#ffffff" font-weight="700"> 1.1%</tspan></text>
    <circle cx="275" cy="100" r="5" fill="#f7b9d4"/>
    <text x="288" y="105" font-family="'Segoe UI', 'Helvetica Neue', Helvetica, Arial, sans-serif" font-size="13.5"><tspan fill="#cfc4e6">JavaScript</tspan><tspan fill="#ffffff" font-weight="700"> 0.7%</tspan></text>
    <circle cx="275" cy="130" r="5" fill="#ffc09f"/>
    <text x="288" y="135" font-family="'Segoe UI', 'Helvetica Neue', Helvetica, Arial, sans-serif" font-size="13.5"><tspan fill="#cfc4e6">CSS</tspan><tspan fill="#ffffff" font-weight="700"> 0.3%</tspan></text>
    <circle cx="275" cy="160" r="5" fill="#f07a9b"/>
    <text x="288" y="165" font-family="'Segoe UI', 'Helvetica Neue', Helvetica, Arial, sans-serif" font-size="13.5"><tspan fill="#cfc4e6">Python</tspan><tspan fill="#ffffff" font-weight="700"> 0.0%</tspan></text>

  </g>
  <rect x="0.5" y="0.5" width="499" height="199" rx="18" fill="none" stroke="#ff8fab" stroke-opacity="0.28"/>
</svg>
